<?xml version="1.0" encoding="utf-8"?>
<!-- Generator: Adobe Illustrator 25.0.0, SVG Export Plug-In . SVG Version: 6.00 Build 0)  -->
<svg version="1.1" id="Layer_1" xmlns="http://www.w3.org/2000/svg" xmlns:xlink="http://www.w3.org/1999/xlink" x="0px" y="0px"
	 viewBox="0 0 2102 589" style="enable-background:new 0 0 2102 589;" xml:space="preserve">
<style type="text/css">
	.st0{fill:#E40A14;}
</style>
<g>
	<g>
		<path class="st0" d="M4.17,19.05c1.89-0.09,3.2-0.21,4.51-0.21c25-0.01,50,0.04,74.99-0.07c3.09-0.01,4.49,0.78,5.61,3.92
			c19.81,55.55,39.77,111.04,59.77,166.52c16.95,47.01,33.98,93.99,51,140.97c0.2,0.56,0.64,1.03,1.78,2.79
			c0-105.48,0-209.58,0-313.91c29.53,0,58.47,0,87.79,0c0,174.76,0,349.62,0,524.88c-16.24,1.68-32.55,3.3-48.84,5.08
			c-14.03,1.53-28.05,3.1-42.04,4.97c-4.57,0.61-6.36-1.04-7.74-5.21c-6.34-19.19-12.97-38.28-19.56-57.38
			c-8.01-23.19-16.08-46.36-24.14-69.54c-7.65-22-15.33-43.98-22.99-65.97c-8.01-23.02-16-46.05-24.02-69.07
			c-2.49-7.14-5.03-14.27-8-22.71c0,101.6,0,201.8,0,302.29c-7.56,2.08-15.26,2.4-22.81,3.53c-20.65,3.08-41.47,4.98-62,8.92
			c-2.28,0.44-3.52-0.35-3.33-2.85c0.08-0.99,0.01-2,0.01-3c0-182.82,0-365.64,0-548.46C4.17,22.89,4.17,21.24,4.17,19.05z"/>
		<path class="st0" d="M1777.13,18.93c31.69,0,62.84,0,94.55,0c18.72,48.28,37.51,96.7,56.74,146.29
			c4.88-11.1,9.25-20.93,13.54-30.8c5.76-13.27,11.49-26.56,17.17-39.86c6.02-14.09,11.95-28.21,17.94-42.31
			c4.29-10.09,8.61-20.16,12.97-30.22c0.78-1.79,1.74-3.25,4.24-3.24c31.15,0.08,62.3,0.05,94.27,0.05
			c-2.53,5.99-4.8,11.49-7.16,16.96c-18.6,43.02-37.25,86.03-55.81,129.07c-16.62,38.52-33.13,77.09-49.8,115.59
			c-1.03,2.39-0.93,4.28-0.04,6.57c9.95,25.67,19.76,51.39,29.71,77.06c16.47,42.48,33.02,84.92,49.5,127.4
			c10.73,27.65,21.38,55.33,32.09,82.99c0.42,1.08,1.17,2.04,0.55,4.4c-32.88-4.42-65.92-8.86-99.48-13.37
			c-21.07-54.31-42.26-108.95-64.05-165.12c-21.81,50.53-43.1,99.87-64.64,149.76c-30.43-3.16-61.08-6.34-92.14-9.56
			c0.81-5.37,3.63-9.94,5.63-14.74c5.89-14.13,12.05-28.15,18.15-42.19c4.67-10.76,9.42-21.48,14.09-32.24
			c5.97-13.77,11.9-27.57,17.84-41.36c5.46-12.69,10.9-25.39,16.37-38.08c5.82-13.49,11.73-26.94,17.52-40.44
			c5.64-13.17,10.39-26.79,17.04-39.43c4.15-7.89,2.98-14.34,0.08-21.66c-8.66-21.86-17.07-43.82-25.65-65.71
			c-5.87-14.97-11.97-29.84-17.78-44.83c-6.81-17.55-13.38-35.19-20.15-52.76c-5.79-15.01-11.7-29.98-17.57-44.96
			c-5.23-13.35-10.5-26.68-15.68-40.05C1776.84,21.31,1777.13,20.22,1777.13,18.93z"/>
		<path class="st0" d="M618.01,430.98c0,29.24,0,57.72,0,86.38c-5.07,1.33-10.3,1.16-15.23,1.35c-8.75,0.33-17.52,0.77-26.22,1.47
			c-16.68,1.34-33.4,2.14-50.08,3.54c-11.77,0.99-23.63,1.51-35.43,2.41c-18.78,1.43-37.57,2.74-56.31,4.64
			c-9.11,0.93-18.33,1.31-27.47,2.18c-10.26,0.97-20.61,1.07-30.78,2.99c-0.59,0.11-1.27-0.23-2.2-0.42c0-172.03,0-344.1,0-516.42
			c81.16,0,162.23,0,243.59,0c0,28.85,0,57.6,0,86.91c-51.63,0-103.35,0-155.38,0c0,39.47,0,78.37,0,117.59
			c39.13,0,78.33,0,117.93,0c0,28.55,0,57.12,0,86.28c-39.17-0.15-78.52,0.24-118.06,1.13c0,43.34,0,86.45,0,130.43
			C514.22,437.75,565.91,433.87,618.01,430.98z"/>
		<path class="st0" d="M1002.33,19c81.48,0,162.77,0,244.45,0c0,28.85,0,57.72,0,87.06c-52.04,0-104.11,0-156.48,0
			c0,37.72,0,74.97,0,112.68c39.24,0,78.64,0,118.37,0c0,29.16,0,57.87,0,86.9c-39.38,0-78.66,0-118.54,0c0,66.69,0,133.07,0,199.64
			c-29.56,0-58.51,0-87.8,0C1002.33,343.37,1002.33,181.46,1002.33,19z"/>
		<path class="st0" d="M766.06,106.22c-30.78,0-61.04,0-91.59,0c0-29.17,0-57.92,0-87.03c90.38,0,180.74,0,271.32,0
			c0,28.85,0,57.61,0,86.88c-30.47,0-60.86,0-91.7,0c0,134.08,0,267.65,0,400.9c-1.61,1.22-2.99,1-4.28,1
			c-15.09,0.01-30.21,0.52-45.24,1.33c-12.66,0.68-25.41-0.77-38.5,2.09C766.06,376.1,766.06,241.37,766.06,106.22z"/>
		<path class="st0" d="M1303.47,18.86c29.03,0,57.96,0,87.54,0c0,135.68,0,271.52,0,407.83c7.1,0.76,13.73,0.78,20.21,1.03
			c9.44,0.37,18.9,0.86,28.32,1.41c20.63,1.19,41.31,1.73,61.89,3.78c5.91,0.59,11.9,0.61,17.84,0.87
			c7.29,0.32,14.51,1.56,22.19,1.29c0,28.82,0,57.51,0,86.52c-8.31,1.22-16.5-0.62-24.66-0.93c-8.81-0.34-17.68-1.13-26.51-1.92
			c-8.48-0.76-17.03-0.24-25.46-1.68c-0.98-0.17-2-0.18-2.99-0.09c-9.78,0.87-19.47-0.93-29.21-1.22
			c-14.32-0.43-28.67-1.15-42.99-1.95c-14.99-0.84-30.05-0.75-44.95-2.1c-13.65-1.24-27.46,1.06-41.22-2.68
			C1303.47,345.94,1303.47,182.57,1303.47,18.86z"/>
		<path class="st0" d="M1614,18.9c29.59,0,58.41,0,87.61,0c0,171.55,0,343.03,0,514.85c-8.06,0.83-16.16-0.9-24.29-1.17
			c-6.2-0.21-12.36-1.35-18.56-1.88c-10.74-0.92-21.53-1.18-32.23-2.63c-2.94-0.4-5.98-0.14-8.97-0.05
			c-2.53,0.08-3.75-0.95-3.58-3.53c0.07-1,0.01-2,0.01-3c0-165.61,0-331.22,0-496.83C1614,22.87,1614,21.07,1614,18.9z"/>
	</g>
</g>
</svg>
